HIERARCHY
ROOT Hips
{
	OFFSET 0.000000 88.474243 0.000000
	CHANNELS 6 Xposition Yposition Zposition Zrotation Yrotation Xrotation 
	JOINT Hips_Spine
	{
		OFFSET 0.000000 0.000000 0.000000
		CHANNELS 3 Zrotation Yrotation Xrotation
		JOINT Spine
		{
			OFFSET 0.005100 8.711998 -0.691000
			CHANNELS 3 Zrotation Yrotation Xrotation
			JOINT Spine1
			{
				OFFSET -0.009200 8.660301 -1.275000
				CHANNELS 3 Zrotation Yrotation Xrotation
				JOINT Spine2
				{
					OFFSET 0.006300 9.852501 -1.857000
					CHANNELS 3 Zrotation Yrotation Xrotation
					JOINT Spine2_Neck
					{
						OFFSET 0.000000 0.000000 0.000000
						CHANNELS 3 Zrotation Yrotation Xrotation
						JOINT Neck
						{
							OFFSET 0.016300 11.420799 -0.263300
							CHANNELS 3 Zrotation Yrotation Xrotation
							End Site #name: Head
							{
								OFFSET -0.019200 9.262405 2.362500
							}
						}
					}
					JOINT Spine2_LeftShoulder
					{
						OFFSET 0.000000 0.000000 0.000000
						CHANNELS 3 Zrotation Yrotation Xrotation
						JOINT LeftShoulder
						{
							OFFSET 5.616900 6.732201 -0.345700
							CHANNELS 3 Zrotation Yrotation Xrotation
							JOINT LeftArm
							{
								OFFSET 10.664888 -0.183372 -2.440700
								CHANNELS 3 Zrotation Yrotation Xrotation
								JOINT LeftForeArm
								{
									OFFSET 27.459126 0.000000 0.000000
									CHANNELS 3 Zrotation Yrotation Xrotation
									End Site #name: LeftHand
									{
										OFFSET 21.306858 0.000000 0.000000
									}
								}
							}
						}
					}
					JOINT Spine2_RightShoulder
					{
						OFFSET 0.000000 0.000000 0.000000
						CHANNELS 3 Zrotation Yrotation Xrotation
						JOINT RightShoulder
						{
							OFFSET -5.580300 6.737503 -0.344400
							CHANNELS 3 Zrotation Yrotation Xrotation
							JOINT RightArm
							{
								OFFSET -10.679335 -0.188484 -2.383900
								CHANNELS 3 Zrotation Yrotation Xrotation
								JOINT RightForeArm
								{
									OFFSET -27.503529 0.000000 0.000000
									CHANNELS 3 Zrotation Yrotation Xrotation
									End Site #name: RightHand
									{
										OFFSET -21.306808 0.000000 0.000000
									}
								}
							}
						}
					}
				}
			}
		}
	}
	JOINT Hips_LeftUpLeg
	{
		OFFSET 0.000000 0.000000 0.000000
		CHANNELS 3 Zrotation Yrotation Xrotation
		JOINT LeftUpLeg
		{
			OFFSET 6.857700 -6.739601 0.312100
			CHANNELS 3 Zrotation Yrotation Xrotation
			JOINT LeftLeg
			{
				OFFSET -0.367590 -34.731552 -4.572400
				CHANNELS 3 Zrotation Yrotation Xrotation
				End Site #name: LeftFoot
				{
					OFFSET 0.367590 -34.656704 -6.067400
				}
			}
		}
	}
	JOINT Hips_RightUpLeg
	{
		OFFSET 0.000000 0.000000 0.000000
		CHANNELS 3 Zrotation Yrotation Xrotation
		JOINT RightUpLeg
		{
			OFFSET -6.876100 -6.733299 0.301000
			CHANNELS 3 Zrotation Yrotation Xrotation
			JOINT RightLeg
			{
				OFFSET 0.347353 -34.795158 -4.515900
				CHANNELS 3 Zrotation Yrotation Xrotation
				End Site #name: RightFoot
				{
					OFFSET -0.347353 -34.589367 -6.070300
				}
			}
		}
	}
}
MOTION
Frames: 9
Frame Time: 0.041667
5.783001 0.883381 1.453189 -4.076152 -8.874419 -0.949803 -0.000000 -0.000000 0.000000 -0.269506 0.612463 4.322511 -0.819745 1.290453 8.703567 0.000000 0.000000 0.000000 -0.851924 1.210238 8.684971 1.467566 -2.239511 2.929535 -0.814296 1.288082 8.667303 3.061806 1.064080 0.401751 -74.175378 -11.164961 26.519346 -178.160329 -86.780785 177.957779 -0.818725 1.234886 8.526831 -3.838304 -2.012300 1.060943 78.343777 -9.447481 4.241575 -174.458215 83.687012 -174.657963 0.000000 -0.000000 -0.000000 1.359337 0.977904 -20.439202 -0.916777 0.409205 28.862643 0.000000 0.000000 -0.000000 -7.547028 0.554786 -16.024412 0.208764 -0.688324 19.099811 
5.970088 0.925524 1.485898 -4.021040 -9.052705 -0.978079 -0.000000 -0.000000 -0.000000 -0.272573 0.621006 4.303647 -0.793690 1.279840 8.633019 0.000000 0.000000 0.000000 -0.833326 1.199867 8.603765 1.204077 -2.509243 2.967552 -0.793253 1.277617 8.587008 3.031751 1.010043 0.401441 -74.266013 -10.722772 26.292304 -178.490778 -86.796278 178.282331 -0.797292 1.223223 8.452093 -3.803663 -2.013318 1.038129 78.477461 -9.601701 4.010471 -174.175650 83.718299 -174.385179 -0.000000 -0.000000 -0.000000 1.189289 0.930295 -20.262272 -0.893848 0.386366 28.448089 0.000000 0.000000 -0.000000 -7.692961 0.760431 -15.890873 0.211971 -0.697782 18.665267 
6.145669 0.964815 1.511266 -3.981605 -9.238065 -1.004040 -0.000000 -0.000000 -0.000000 -0.275231 0.626622 4.289182 -0.769282 1.272580 8.571394 0.000000 0.000000 0.000000 -0.815138 1.191109 8.514380 1.092859 -2.700546 3.076477 -0.776195 1.271411 8.512434 3.015562 0.978103 0.402835 -74.377588 -10.300063 26.074021 -178.856143 -86.815250 178.640718 -0.778818 1.215008 8.387893 -3.776854 -2.008948 1.019892 78.606943 -9.744396 3.833316 -173.896629 83.756598 -174.121570 -0.000000 -0.000000 -0.000000 1.042050 0.911016 -20.106766 -0.878463 0.369010 28.086942 0.000000 0.000000 -0.000000 -7.803755 0.949743 -15.734274 0.210915 -0.715692 18.250491 
6.308600 1.000465 1.528267 -3.962094 -9.400201 -1.020462 -0.000000 -0.000000 -0.000000 -0.275387 0.628454 4.279257 -0.748419 1.267859 8.512277 0.000000 0.000000 0.000000 -0.798355 1.186139 8.433627 1.010099 -2.829242 3.176014 -0.760721 1.266961 8.447053 3.012262 0.957709 0.406366 -74.466406 -9.928984 25.904403 -179.240439 -86.831670 179.018208 -0.763586 1.211041 8.334639 -3.756546 -1.989939 1.007175 78.731765 -9.893035 3.681525 -173.652580 83.784759 -173.895165 -0.000000 -0.000000 -0.000000 0.909616 0.909581 -19.952425 -0.865163 0.360366 27.780034 0.000000 0.000000 -0.000000 -7.895168 1.104913 -15.602133 0.205707 -0.724663 17.928788 
6.457911 1.030325 1.534912 -3.959138 -9.527479 -1.027959 -0.000000 -0.000000 -0.000000 -0.275572 0.626217 4.278328 -0.730253 1.266841 8.460506 0.000000 0.000000 0.000000 -0.782542 1.185226 8.362601 0.945782 -2.929634 3.249011 -0.746837 1.264133 8.391185 3.023529 0.956699 0.409239 -74.571145 -9.602730 25.752840 -179.600248 -86.851226 179.372356 -0.750789 1.211437 8.292217 -3.740782 -1.957779 0.998558 78.835321 -10.017841 3.572244 -173.462036 83.785721 -173.725355 -0.000000 -0.000000 -0.000000 0.795932 0.936316 -19.813215 -0.859424 0.356565 27.533996 0.000000 0.000000 -0.000000 -7.973722 1.218699 -15.518476 0.202900 -0.716241 17.749924 
6.588028 1.052095 1.530194 -3.967271 -9.674017 -1.024160 -0.000000 -0.000000 -0.000000 -0.275820 0.618564 4.280282 -0.713784 1.267518 8.414117 0.000000 0.000000 0.000000 -0.768001 1.187480 8.303660 0.901983 -2.993326 3.282637 -0.734689 1.263417 8.345535 3.043829 0.969948 0.410424 -74.660329 -9.325722 25.628411 179.959638 -86.881188 179.807863 -0.739826 1.215487 8.255402 -3.731213 -1.907773 0.989871 78.886634 -10.111499 3.517067 -173.363383 83.754801 -173.648058 -0.000000 -0.000000 -0.000000 0.689445 0.991552 -19.687761 -0.855914 0.358432 27.321316 -0.000000 0.000000 -0.000000 -8.051249 1.303410 -15.471707 0.201997 -0.702438 17.672248 
6.692115 1.065653 1.516826 -3.982545 -9.846416 -1.008172 -0.000000 -0.000000 -0.000000 -0.274732 0.609231 4.282833 -0.698814 1.268912 8.370372 0.000000 0.000000 0.000000 -0.754539 1.193021 8.259359 0.881466 -3.023500 3.289582 -0.723455 1.264609 8.308777 3.062896 0.992477 0.411747 -74.737869 -9.105710 25.535953 179.492771 -86.936690 -179.731048 -0.731475 1.224069 8.223527 -3.719435 -1.858815 0.980662 78.882652 -10.162021 3.521648 -173.370289 83.695253 -173.673445 0.000000 -0.000000 -0.000000 0.574831 1.069777 -19.600669 -0.855564 0.365226 27.173806 -0.000000 -0.000000 -0.000000 -8.144665 1.346281 -15.465935 0.202991 -0.679276 17.678672 
6.762022 1.071959 1.499062 -3.986693 -10.033884 -0.984019 -0.000000 -0.000000 -0.000000 -0.277321 0.599445 4.266570 -0.684678 1.272469 8.335845 0.000000 0.000000 0.000000 -0.740126 1.200930 8.225018 0.882696 -3.022060 3.269263 -0.713014 1.267592 8.280869 3.090193 1.023053 0.411419 -74.796466 -8.931933 25.466656 178.941064 -87.007888 -179.182698 -0.722181 1.235380 8.194908 -3.716162 -1.828141 0.969680 78.846029 -10.171776 3.561443 -173.455259 83.643264 -173.774120 0.000000 -0.000000 -0.000000 0.462957 1.143570 -19.539760 -0.857535 0.375318 27.092119 -0.000000 -0.000000 -0.000000 -8.250708 1.344095 -15.488039 0.211929 -0.651150 17.730949 
6.788995 1.071973 1.480629 -3.984737 -10.197314 -0.943241 -0.000000 -0.000000 -0.000000 -0.277028 0.590668 4.245738 -0.671707 1.278772 8.311824 0.000000 0.000000 0.000000 -0.724341 1.212002 8.200067 0.909434 -2.984211 3.218227 -0.702916 1.272372 8.261952 3.115472 1.058187 0.410261 -74.832524 -8.801465 25.427996 178.424616 -87.067672 -178.667158 -0.712657 1.249823 8.172998 -3.708955 -1.808167 0.958976 78.771284 -10.153849 3.636235 -173.624895 83.581885 -173.956924 0.000000 -0.000000 -0.000000 0.355440 1.202461 -19.515669 -0.853169 0.385957 27.092189 -0.000000 -0.000000 -0.000000 -8.363111 1.292517 -15.539536 0.226413 -0.622888 17.831525 
